<svg width="20" height="10" viewBox="0 0 20 10" fill="none" xmlns="http://www.w3.org/2000/svg">
<path d="M15.0099 0.000626815C14.6709 -0.012474 14.3581 0.180763 14.2206 0.488633C14.0797 0.798141 14.1403 1.15841 14.3745 1.40569L16.9292 4.1667H0.844595C0.543276 4.16178 0.26652 4.32063 0.114223 4.57937C-0.0380743 4.83812 -0.0380743 5.15909 0.114223 5.41783C0.26652 5.67821 0.543276 5.83542 0.844595 5.8305H16.9292L14.3745 8.59315C14.1665 8.81095 14.0928 9.12209 14.1813 9.41031C14.2681 9.69689 14.5039 9.91469 14.797 9.9802C15.0901 10.0457 15.3964 9.94581 15.5962 9.72309L19.9636 4.9986L15.5962 0.274107C15.4471 0.108709 15.2342 0.00881516 15.0099 0.000626815Z" fill="#09163B"/>
</svg>
