<svg width="25" height="25" viewBox="0 0 25 25" fill="none" xmlns="http://www.w3.org/2000/svg">
<path d="M0.0778809 12C0.0778809 9.82399 0.613897 7.81601 1.68588 5.976C2.75789 4.13599 4.2139 2.68001 6.05388 1.608C7.89389 0.535992 9.9019 0 12.0779 0C14.2539 0 16.2619 0.535992 18.1019 1.608C19.9419 2.68001 21.3979 4.13599 22.4699 5.976C23.5419 7.81601 24.0779 9.82399 24.0779 12C24.0779 14.176 23.5419 16.184 22.4699 18.024C21.3979 19.864 19.9419 21.32 18.1019 22.392C16.2619 23.464 14.2539 24 12.0779 24C9.9019 24 7.89389 23.464 6.05388 22.392C4.2139 21.32 2.75789 19.864 1.68588 18.024C0.613897 16.184 0.0778809 14.176 0.0778809 12ZM2.06988 12C2.06988 14.496 2.90988 16.696 4.58988 18.6C5.35788 17.096 6.57389 15.664 8.23788 14.304C9.9019 12.944 11.5259 12.088 13.1099 11.736C12.8699 11.176 12.6379 10.672 12.4139 10.224C9.6619 11.104 6.6859 11.544 3.48588 11.544C2.86188 11.544 2.39789 11.536 2.09388 11.52C2.09388 11.584 2.0899 11.664 2.08188 11.76C2.07389 11.856 2.06988 11.936 2.06988 12ZM2.38188 9.528C2.73389 9.55999 3.2539 9.576 3.94188 9.576C6.6139 9.576 9.14988 9.216 11.5499 8.496C10.3339 6.336 8.99789 4.536 7.54188 3.096C6.2779 3.73601 5.19389 4.62401 4.28988 5.76C3.3859 6.89599 2.7499 8.15201 2.38188 9.528ZM5.95788 19.896C7.7659 21.304 9.8059 22.008 12.0779 22.008C13.2619 22.008 14.4379 21.784 15.6059 21.336C15.2859 18.6 14.6619 15.952 13.7339 13.392C12.2619 13.712 10.7779 14.52 9.28188 15.816C7.78589 17.112 6.67788 18.472 5.95788 19.896ZM9.62988 2.328C11.0379 3.78401 12.3419 5.59999 13.5419 7.776C15.7179 6.864 17.3579 5.70401 18.4619 4.296C16.6059 2.76 14.4779 1.992 12.0779 1.992C11.2619 1.992 10.4459 2.10401 9.62988 2.328ZM14.4059 9.48C14.6459 9.99199 14.9179 10.64 15.2219 11.424C16.4059 11.312 17.6939 11.256 19.0859 11.256C20.0779 11.256 21.0619 11.28 22.0379 11.328C21.9099 9.15199 21.1259 7.21601 19.6859 5.52C18.6459 7.07201 16.8859 8.39201 14.4059 9.48ZM15.8219 13.104C16.6379 15.472 17.1899 17.904 17.4779 20.4C18.7419 19.584 19.7739 18.536 20.5739 17.256C21.3739 15.976 21.8539 14.592 22.0139 13.104C20.8459 13.024 19.7819 12.984 18.8219 12.984C17.9419 12.984 16.9419 13.024 15.8219 13.104Z" fill="white"/>
</svg>
