<svg width="26" height="24" viewBox="0 0 26 24" fill="none" xmlns="http://www.w3.org/2000/svg">
<path d="M0.0778809 2.78788C0.0778809 1.97978 0.360717 1.31312 0.926366 0.787879C1.49201 0.262618 2.22738 0 3.13243 0C4.02132 0 4.7405 0.25857 5.29 0.775758C5.85565 1.30909 6.13849 2.00402 6.13849 2.86061C6.13849 3.63636 5.86375 4.28281 5.31424 4.8C4.7486 5.33333 4.00515 5.6 3.08394 5.6H3.0597C2.1708 5.6 1.45163 5.33333 0.902123 4.8C0.35262 4.26667 0.0778809 3.59595 0.0778809 2.78788ZM0.393032 24V7.80606H5.77485V24H0.393032ZM8.75667 24H14.1385V14.9576C14.1385 14.3919 14.2031 13.9555 14.3324 13.6485C14.5587 13.099 14.9021 12.6343 15.3627 12.2545C15.8233 11.8747 16.4011 11.6848 17.0961 11.6848C18.9062 11.6848 19.8112 12.905 19.8112 15.3455V24H25.193V14.7152C25.193 12.3232 24.6274 10.5091 23.4961 9.27273C22.3647 8.03636 20.8698 7.41818 19.0112 7.41818C16.9264 7.41818 15.3021 8.31515 14.1385 10.1091V10.1576H14.1142L14.1385 10.1091V7.80606H8.75667C8.78898 8.32322 8.80515 9.9313 8.80515 12.6303C8.80515 15.3293 8.78898 19.1192 8.75667 24Z" fill="white"/>
</svg>
