<svg width="166" height="18" viewBox="0 0 166 18" fill="none" xmlns="http://www.w3.org/2000/svg">
<path d="M7.612 0.534074V10.4781C7.612 11.1161 7.458 11.6001 7.172 11.9741C6.886 12.3261 6.468 12.5021 5.94 12.5021C5.39 12.5021 4.972 12.3481 4.708 12.0181C4.422 11.6881 4.29 11.2041 4.268 10.5661H0.197998C0.197998 12.2821 0.725998 13.6681 1.782 14.7241C2.838 15.7801 4.202 16.3081 5.896 16.3081C7.59 16.3081 8.976 15.7801 10.054 14.7241C11.132 13.6681 11.66 12.3041 11.66 10.6101V0.534074H7.612Z" fill="#0F2254"/>
<path d="M13.897 8.25607C13.897 10.5661 14.667 12.4801 16.207 13.9981C17.769 15.5161 19.749 16.2861 22.147 16.2861C24.589 16.2861 26.591 15.5161 28.153 13.9981C29.715 12.4801 30.485 10.5661 30.485 8.25607C30.485 5.94607 29.715 4.03207 28.153 2.51407C26.591 0.996073 24.589 0.226074 22.147 0.226074C19.749 0.226074 17.769 0.996073 16.207 2.51407C14.667 4.03207 13.897 5.94607 13.897 8.25607ZM26.217 8.27807C26.217 9.53207 25.843 10.5221 25.095 11.2921C24.347 12.0621 23.357 12.4581 22.147 12.4581C20.937 12.4581 19.969 12.0621 19.243 11.2921C18.517 10.5221 18.143 9.51007 18.143 8.27807C18.143 7.06807 18.517 6.05607 19.265 5.26407C20.013 4.47207 20.981 4.07607 22.169 4.07607C23.379 4.07607 24.347 4.47207 25.095 5.26407C25.843 6.05607 26.217 7.06807 26.217 8.27807Z" fill="#0F2254"/>
<path d="M36.2483 0.534074L30.8143 16.0001H34.9723L35.7203 13.6461H40.9123L41.6603 16.0001H46.0163L40.6263 0.534074H36.2483ZM39.8563 10.2361H36.7763L38.3163 5.35207L39.8563 10.2361Z" fill="#0F2254"/>
<path d="M46.3598 8.25607C46.3598 10.5661 47.1298 12.4801 48.6698 13.9981C50.2318 15.5161 52.2118 16.2861 54.6098 16.2861C55.0278 16.2861 55.4458 16.2641 55.8638 16.2201C56.2818 16.1541 56.6558 16.1101 57.0738 16.0001L58.2838 17.7821H62.7058L60.3298 14.2841C61.1658 13.5581 61.8038 12.6781 62.2658 11.6221C62.7278 10.5881 62.9478 9.46607 62.9478 8.25607C62.9478 5.94607 62.1778 4.03207 60.6158 2.51407C59.0538 0.996073 57.0518 0.226074 54.6098 0.226074C52.2118 0.226074 50.2318 0.996073 48.6698 2.51407C47.1298 4.03207 46.3598 5.94607 46.3598 8.25607ZM54.7198 12.5681H54.6318C53.4218 12.5681 52.4318 12.1721 51.6838 11.3801C50.9358 10.5881 50.5618 9.55407 50.5618 8.27807C50.5618 7.02407 50.9358 6.01207 51.6838 5.22007C52.4318 4.42807 53.4218 4.03207 54.6318 4.03207C55.8418 4.03207 56.8318 4.42807 57.6018 5.22007C58.3718 5.99007 58.7458 7.02407 58.7458 8.30007C58.7458 8.78407 58.6798 9.24607 58.5478 9.68607C58.4158 10.1041 58.2178 10.5221 57.9758 10.9181L56.1938 8.30007H51.7718L54.7198 12.5681Z" fill="#0F2254"/>
<path d="M73.5781 0.534074V10.4121C73.5781 11.0501 73.3801 11.5341 72.9621 11.9081C72.5441 12.2821 71.9721 12.4801 71.2461 12.4801C70.6081 12.4801 70.1021 12.3041 69.7501 11.9301C69.3981 11.5561 69.2221 11.0501 69.2221 10.4121V0.534074H65.1521V10.5441C65.1521 12.2381 65.7461 13.6241 66.9121 14.7021C68.0781 15.7801 69.5521 16.3301 71.3341 16.3301C73.1601 16.3301 74.6781 15.8021 75.8441 14.7241C77.0321 13.6461 77.6261 12.2601 77.6261 10.5661V0.556074L73.5781 0.534074Z" fill="#0F2254"/>
<path d="M84.738 16.0001V0.534074H80.668V16.0001H84.738Z" fill="#0F2254"/>
<path d="M91.7362 16.0001V7.50807L96.9062 16.0001H100.8V0.534074H96.9722V9.09207L91.7582 0.534074H87.9082V16.0001H91.7362Z" fill="#0F2254"/>
<path d="M114.067 0.534074V10.4781C114.067 11.1161 113.913 11.6001 113.627 11.9741C113.341 12.3261 112.923 12.5021 112.395 12.5021C111.845 12.5021 111.427 12.3481 111.163 12.0181C110.877 11.6881 110.745 11.2041 110.723 10.5661H106.653C106.653 12.2821 107.181 13.6681 108.237 14.7241C109.293 15.7801 110.657 16.3081 112.351 16.3081C114.045 16.3081 115.431 15.7801 116.509 14.7241C117.587 13.6681 118.115 12.3041 118.115 10.6101V0.534074H114.067Z" fill="#0F2254"/>
<path d="M120.352 8.25607C120.352 10.5661 121.122 12.4801 122.662 13.9981C124.224 15.5161 126.204 16.2861 128.602 16.2861C131.044 16.2861 133.046 15.5161 134.608 13.9981C136.17 12.4801 136.94 10.5661 136.94 8.25607C136.94 5.94607 136.17 4.03207 134.608 2.51407C133.046 0.996073 131.044 0.226074 128.602 0.226074C126.204 0.226074 124.224 0.996073 122.662 2.51407C121.122 4.03207 120.352 5.94607 120.352 8.25607ZM132.672 8.27807C132.672 9.53207 132.298 10.5221 131.55 11.2921C130.802 12.0621 129.812 12.4581 128.602 12.4581C127.392 12.4581 126.424 12.0621 125.698 11.2921C124.972 10.5221 124.598 9.51007 124.598 8.27807C124.598 7.06807 124.972 6.05607 125.72 5.26407C126.468 4.47207 127.436 4.07607 128.624 4.07607C129.834 4.07607 130.802 4.47207 131.55 5.26407C132.298 6.05607 132.672 7.06807 132.672 8.27807Z" fill="#0F2254"/>
<path d="M146.146 16.0001V10.7641L151.25 0.534074H146.982L144.144 6.43007L141.548 0.534074H136.906L142.076 10.9621V16.0001H146.146Z" fill="#0F2254"/>
<path d="M155.315 0.534074L149.881 16.0001H154.039L154.787 13.6461H159.979L160.727 16.0001H165.083L159.693 0.534074H155.315ZM158.923 10.2361H155.843L157.383 5.35207L158.923 10.2361Z" fill="#0F2254"/>
</svg>
