<svg width="28" height="22" viewBox="0 0 28 22" fill="none" xmlns="http://www.w3.org/2000/svg">
<path d="M18.0932 0.00488346V0H19.3629L19.8269 0.0927858C20.1362 0.153023 20.417 0.231964 20.6693 0.329634C20.9216 0.427303 21.1658 0.541259 21.4018 0.671476C21.6378 0.801694 21.8519 0.934377 22.044 1.06948C22.2344 1.20297 22.4054 1.34459 22.5567 1.49434C22.7065 1.64573 22.9401 1.68479 23.2575 1.61154C23.5749 1.53829 23.9168 1.43654 24.283 1.30633C24.6493 1.17611 25.0115 1.0296 25.3696 0.866815C25.7277 0.704024 25.9459 0.600666 26.024 0.556715C26.1005 0.511152 26.1412 0.486735 26.1461 0.483463L26.1509 0.476138L26.1754 0.463929L26.1998 0.45172L26.2242 0.439512L26.2486 0.427303L26.2535 0.419978L26.2608 0.415094L26.2682 0.410211L26.273 0.402886L26.2974 0.395561L26.3219 0.390677L26.317 0.427303L26.3097 0.463929L26.2974 0.500555L26.2852 0.537181L26.273 0.561598L26.2608 0.586016L26.2486 0.622642C26.2405 0.647059 26.2324 0.679607 26.2242 0.720311C26.2161 0.761014 26.1387 0.92378 25.9922 1.20866C25.8457 1.49353 25.6626 1.78246 25.4428 2.07547C25.2231 2.36848 25.0261 2.58985 24.852 2.73962C24.6762 2.89101 24.5598 2.99681 24.5028 3.05705C24.4458 3.1189 24.3766 3.17586 24.2952 3.22797L24.1731 3.30855L24.1487 3.32075L24.1243 3.33296L24.1195 3.34029L24.1121 3.34517L24.1048 3.35006L24.0999 3.35738L24.0755 3.36959L24.0511 3.3818L24.0462 3.38912L24.0388 3.39401L24.0315 3.39889L24.0266 3.40622L24.0218 3.41354L24.0144 3.41842L24.0071 3.42331L24.0022 3.43063H24.1243L24.808 3.28413C25.2638 3.18646 25.6992 3.06845 26.1143 2.93008L26.7736 2.71032L26.8468 2.6859L26.8835 2.6737L26.9079 2.66149L26.9323 2.64928L26.9567 2.63707L26.9811 2.62486L27.03 2.61754L27.0788 2.61265V2.66149L27.0666 2.66637L27.0544 2.6737L27.0495 2.68102L27.0422 2.6859L27.0349 2.69079L27.03 2.69811L27.0251 2.70544L27.0178 2.71032L27.0104 2.71521L27.0056 2.72253L27.0007 2.72986L26.9933 2.73474L26.9811 2.75916L26.9689 2.78357L26.9616 2.78846C26.9584 2.79334 26.855 2.93169 26.6515 3.20355C26.448 3.47703 26.3382 3.61537 26.3219 3.61865C26.3056 3.62353 26.2828 3.64795 26.2535 3.6919C26.2258 3.73746 26.0533 3.91898 25.7359 4.2364C25.4184 4.55383 25.1075 4.83624 24.8031 5.08368C24.4971 5.33274 24.3425 5.63876 24.3392 6.00178C24.3343 6.36315 24.3156 6.77175 24.283 7.22753C24.2505 7.68332 24.1894 8.17572 24.0999 8.70477C24.0104 9.23382 23.872 9.83205 23.6848 10.4994C23.4976 11.1668 23.2697 11.818 23.0011 12.4528C22.7325 13.0877 22.4517 13.6574 22.1587 14.162C21.8657 14.6667 21.5971 15.094 21.3529 15.444C21.1088 15.7939 20.8605 16.1236 20.6082 16.4329C20.3559 16.7421 20.0369 17.0905 19.6511 17.4779C19.2637 17.8637 19.0521 18.0753 19.0162 18.1128C18.9788 18.1486 18.8193 18.2821 18.5376 18.5132C18.2577 18.746 17.9565 18.9787 17.6342 19.2115C17.3135 19.4427 17.0189 19.6356 16.7503 19.7902C16.4817 19.9449 16.1578 20.1215 15.7785 20.3201C15.4008 20.5203 14.9922 20.7059 14.5527 20.8768C14.1132 21.0477 13.6493 21.2064 13.1609 21.3529C12.6726 21.4994 12.2005 21.6134 11.7447 21.6948C11.289 21.7762 10.7721 21.8454 10.1942 21.9023L9.32741 21.9878V22H7.74029V21.9878L7.53274 21.9756C7.39439 21.9675 7.28044 21.9593 7.1909 21.9512C7.10139 21.943 6.7636 21.8983 6.17758 21.8169C5.59157 21.7355 5.13171 21.6541 4.798 21.5727C4.46432 21.4913 3.96781 21.3367 3.30855 21.1088C2.64928 20.8809 2.08524 20.6505 1.61643 20.4178C1.14925 20.1866 0.856242 20.0401 0.737403 19.9782C0.6202 19.918 0.488346 19.8431 0.341842 19.7536L0.122087 19.6193L0.117228 19.612L0.109878 19.6071L0.102553 19.6022L0.0976693 19.5949L0.0732519 19.5827L0.0488346 19.5705L0.0439756 19.5632L0.036626 19.5583L0.0293008 19.5534L0.0244173 19.5461L0.0195583 19.5387L0.0122087 19.5339H0V19.485L0.0244173 19.4899L0.0488346 19.4972L0.158713 19.5094C0.231965 19.5176 0.431381 19.5298 0.756937 19.5461C1.08252 19.5623 1.42841 19.5623 1.79467 19.5461C2.16093 19.5298 2.53535 19.4931 2.91787 19.4362C3.30042 19.3792 3.75214 19.2815 4.27303 19.1432C4.79395 19.0048 5.27253 18.8404 5.70879 18.6499C6.14342 18.4579 6.45269 18.3146 6.63665 18.2202C6.81895 18.1274 7.09731 17.9549 7.4717 17.7026L8.0333 17.3241L8.03818 17.3168L8.04551 17.3119L8.05286 17.307L8.05771 17.2997L8.0626 17.2923L8.06992 17.2875L8.07727 17.2826L8.08213 17.2753L8.10655 17.2679L8.13097 17.263L8.13585 17.2386L8.14318 17.2142L8.15052 17.2093L8.15538 17.202L7.96005 17.1898C7.82983 17.1817 7.70366 17.1735 7.58158 17.1654C7.45949 17.1572 7.26823 17.1206 7.00777 17.0555C6.74733 16.9904 6.46654 16.8927 6.16537 16.7625C5.86423 16.6323 5.57123 16.4776 5.28635 16.2986C5.0015 16.1195 4.79556 15.9705 4.66859 15.8517C4.54326 15.7345 4.38047 15.5685 4.18024 15.3536C3.98166 15.1371 3.8091 14.9149 3.6626 14.687C3.51609 14.4591 3.37611 14.1962 3.24264 13.8983L3.03996 13.4539L3.02775 13.4173L3.01554 13.3807L3.00821 13.3563L3.00333 13.3319L3.03996 13.3367L3.07658 13.3441L3.34517 13.3807C3.52425 13.4051 3.80505 13.4132 4.18757 13.4051C4.57012 13.397 4.83463 13.3807 4.98113 13.3563C5.12764 13.3319 5.21717 13.3156 5.24972 13.3074L5.29856 13.2952L5.3596 13.283L5.42064 13.2708L5.42553 13.2635L5.43285 13.2586L5.4402 13.2537L5.44506 13.2464L5.39623 13.2342L5.34739 13.222L5.29856 13.2098L5.24972 13.1976L5.20089 13.1853C5.16834 13.1772 5.11137 13.1609 5.02997 13.1365C4.94858 13.1121 4.72883 13.0226 4.3707 12.8679C4.0126 12.7133 3.72772 12.5627 3.51609 12.4162C3.30394 12.2693 3.10166 12.1086 2.91054 11.9352C2.72009 11.7594 2.51093 11.5331 2.28302 11.2564C2.05513 10.9797 1.85166 10.6582 1.67259 10.2919C1.49353 9.92564 1.35924 9.57567 1.2697 9.24195C1.18052 8.91021 1.12169 8.57104 1.09392 8.22864L1.04994 7.71587L1.07436 7.72076L1.09878 7.72808L1.1232 7.74029L1.14761 7.7525L1.17203 7.76471L1.19645 7.77691L1.57492 7.94784C1.82725 8.06179 2.14059 8.15946 2.51498 8.24084C2.8894 8.32223 3.11321 8.36701 3.18646 8.37514L3.29634 8.38735H3.51609L3.51123 8.38002L3.50388 8.37514L3.49656 8.37026L3.49168 8.36293L3.48682 8.35561L3.47947 8.35072L3.47214 8.34584L3.46726 8.33851L3.44284 8.3263L3.41842 8.3141L3.41357 8.30677L3.40622 8.30189L3.39889 8.297L3.39401 8.28968L3.36959 8.27747L3.34517 8.26526L3.34031 8.25794C3.33543 8.25466 3.26543 8.20258 3.1303 8.10166C2.99681 7.99911 2.85683 7.86645 2.71032 7.70366C2.56382 7.54087 2.41731 7.36995 2.27081 7.1909C2.12404 7.01144 1.99331 6.81943 1.88013 6.61709C1.7662 6.41362 1.64573 6.15477 1.51876 5.84062C1.39342 5.52808 1.2982 5.2131 1.23307 4.89567C1.16798 4.57825 1.13135 4.2649 1.1232 3.9556C1.11507 3.64631 1.1232 3.3818 1.14761 3.16204C1.17203 2.94229 1.22087 2.69404 1.29412 2.41731C1.36737 2.14059 1.47319 1.84758 1.61154 1.53829L1.81909 1.07436L1.8313 1.03774L1.84351 1.00111L1.85086 0.996226L1.85572 0.988901L1.8606 0.981576L1.86792 0.976693L1.87527 0.981576L1.88013 0.988901L1.88502 0.996226L1.89234 1.00111L1.89969 1.00599L1.90455 1.01332L1.90943 1.02064L1.91676 1.02553L1.92897 1.04994L1.94118 1.07436L1.94853 1.07925L1.95339 1.08657L2.28302 1.45283C2.50277 1.697 2.76323 1.96967 3.06437 2.27081C3.36554 2.57195 3.53238 2.72822 3.56493 2.73962C3.5975 2.75264 3.63818 2.79007 3.68701 2.85194C3.73585 2.91218 3.89864 3.05624 4.17536 3.28413C4.45211 3.51202 4.81429 3.77655 5.26193 4.07769C5.7096 4.37883 6.20608 4.67592 6.75139 4.96892C7.29672 5.26193 7.88274 5.52644 8.50943 5.76249C9.13615 5.99853 9.57567 6.15316 9.82797 6.22642C10.0803 6.29967 10.5117 6.39326 11.1221 6.50721C11.7325 6.62117 12.1924 6.69442 12.5017 6.72697C12.811 6.75952 13.0226 6.77825 13.1365 6.78313L13.3074 6.78801L13.3026 6.75139L13.2952 6.71476L13.2464 6.40955C13.2138 6.20608 13.1976 5.9212 13.1976 5.55494C13.1976 5.18868 13.2261 4.85091 13.283 4.54162C13.34 4.23233 13.4255 3.91898 13.5394 3.60155C13.6534 3.28413 13.7649 3.02936 13.8739 2.83729C13.9846 2.64684 14.1295 2.42952 14.3085 2.18535C14.4876 1.94118 14.7196 1.68887 15.0044 1.42841C15.2893 1.16795 15.6149 0.935989 15.9811 0.732519C16.3474 0.52905 16.6852 0.374391 16.9945 0.26859C17.3037 0.16279 17.5642 0.0935916 17.7758 0.0610433C17.9874 0.028495 18.0932 0.00976693 18.0932 0.00488346V0.00488346Z" fill="white"/>
</svg>
